<?xml version="1.0" standalone="no"?>
<svg xmlns="http://www.w3.org/2000/svg" xmlns:xlink="http://www.w3.org/1999/xlink" width="496pt" height="136pt" viewBox="0.00 0.00 496.22 136">
<g id="graph0" class="graph" transform="translate(4,132) scale(1)" data-name="">
<polygon fill="white" stroke="none" points="-4,4 -4,-132 492.22,-132 492.22,4 -4,4"/>
<!-- alg --><g id="clust1" class="cluster" data-name="cluster_1" data-comment="alg">

<polygon fill="none" stroke="black" points="82.43,-68 82.43,-120 480.22,-120 480.22,-68 82.43,-68"/>
</g>
<g id="node1" class="node" pointer-events="visible" data-name="alg">

<polygon fill="none" stroke="black" points="144.43,-112 90.43,-112 90.43,-76 144.43,-76 144.43,-112"/>
<text text-anchor="middle" x="117.43" y="-89.8" font-family="Times,serif" font-size="14.00">alg</text>
</g><g id="clust2" class="cluster" data-name="cluster_2" data-comment="alg">

<polygon fill="none" stroke="black" points="82,-8 82,-60 389.35,-60 389.35,-8 82,-8"/>
</g>
<!-- game -->
<g id="node2" class="node" pointer-events="visible" data-name="game">

<polygon fill="none" stroke="black" points="263.11,-112 209.11,-112 209.11,-76 263.11,-76 263.11,-112"/>
<text text-anchor="middle" x="236.11" y="-89.8" font-family="Times,serif" font-size="14.00">game</text>
</g>
<!-- alg&#45;&gt;game -->
<g id="edge1" class="edge" data-name="alg-&gt;game">

<path fill="none" stroke="black" d="M144.91,-94C160.42,-94 180.28,-94 197.4,-94"/>
<polygon fill="black" stroke="black" points="197.22,-97.5 207.22,-94 197.22,-90.5 197.22,-97.5"/>
</g>
<!-- data -->
<g id="node3" class="node" pointer-events="visible" data-name="data">

<polygon fill="none" stroke="black" points="381.35,-112 327.35,-112 327.35,-76 381.35,-76 381.35,-112"/>
<text text-anchor="middle" x="354.35" y="-89.8" font-family="Times,serif" font-size="14.00">data</text>
</g>
<!-- game&#45;&gt;data -->
<g id="edge2" class="edge" data-name="game-&gt;data">

<path fill="none" stroke="black" d="M263.49,-94C278.94,-94 298.72,-94 315.78,-94"/>
<polygon fill="black" stroke="black" points="315.56,-97.5 325.56,-94 315.56,-90.5 315.56,-97.5"/>
</g>
<!-- dataset -->
<g id="node4" class="node" pointer-events="visible" data-name="dataset">

<polygon fill="none" stroke="black" points="472.15,-112 417.41,-112 417.41,-76 472.15,-76 472.15,-112"/>
<text text-anchor="middle" x="444.78" y="-89.8" font-family="Times,serif" font-size="14.00">dataset</text>
</g>
<!-- data&#45;&gt;dataset -->
<g id="edge3" class="edge" data-name="data-&gt;dataset">

<path fill="none" stroke="black" d="M381.4,-94C389.02,-94 397.51,-94 405.71,-94"/>
<polygon fill="black" stroke="black" points="405.48,-97.5 415.48,-94 405.48,-90.5 405.48,-97.5"/>
</g>
<!-- p_script -->
<g id="node6" class="node" pointer-events="visible" data-name="p_script">

<polygon fill="none" stroke="black" points="291.59,-52 180.63,-52 180.63,-16 291.59,-16 291.59,-52"/>
<text text-anchor="middle" x="236.11" y="-29.8" font-family="Times,serif" font-size="14.00">processing script</text>
</g>
<!-- g -->
<g id="node7" class="node" pointer-events="visible" data-name="g">

<polygon fill="none" stroke="black" points="381.35,-52 327.35,-52 327.35,-16 381.35,-16 381.35,-52"/>
<text text-anchor="middle" x="354.35" y="-29.8" font-family="Times,serif" font-size="14.00">charts</text>
</g>
<!-- p_script&#45;&gt;g -->
<g id="edge5" class="edge" data-name="p_script-&gt;g">

<path fill="none" stroke="black" d="M291.83,-34C299.86,-34 307.99,-34 315.58,-34"/>
<polygon fill="black" stroke="black" points="315.48,-37.5 325.48,-34 315.48,-30.5 315.48,-37.5"/>
</g>
<!-- dataset&#45;&gt;p_script -->
<g id="node5" class="node" pointer-events="visible" data-name="dataset2" data-comment="dataset-&gt;p_script">

<polygon fill="none" stroke="black" points="144.8,-52 90.07,-52 90.07,-16 144.8,-16 144.8,-52"/>
<text text-anchor="middle" x="117.43" y="-29.8" font-family="Times,serif" font-size="14.00">dataset</text>
</g>
<!-- dataset2&#45;&gt;p_script -->

<g id="edge4" class="edge" data-name="dataset2-&gt;p_script">

<path fill="none" stroke="black" d="M145.2,-34C152.42,-34 160.56,-34 168.91,-34"/>
<polygon fill="black" stroke="black" points="168.86,-37.5 178.86,-34 168.86,-30.5 168.86,-37.5"/>
</g>
<!-- p_script&#45;&gt;g -->

<!-- i -->
<!-- inv&#45;&gt;alg -->
</g>
</svg>